<svg width="42" height="42" viewBox="0 0 42 42" fill="none" xmlns="http://www.w3.org/2000/svg">
<circle cx="21" cy="21" r="20.5" stroke="#FF6E41"/>
<path d="M24.9036 22.3704C24.3945 22.3704 23.9811 21.957 23.9811 21.4479C23.9811 20.9388 24.3945 20.526 24.9036 20.526C25.4128 20.526 25.8255 20.9388 25.8255 21.4479C25.8255 21.957 25.4128 22.3704 24.9036 22.3704ZM20.7539 25.362C19.4805 25.362 18.4486 24.5365 18.4486 23.5176H23.0592C23.0592 24.5365 22.0273 25.362 20.7539 25.362ZM16.6048 22.3704C16.0951 22.3704 15.6823 21.957 15.6823 21.4479C15.6823 20.9388 16.0951 20.526 16.6048 20.526C17.1139 20.526 17.5267 20.9388 17.5267 21.4479C17.5267 21.957 17.1139 22.3704 16.6048 22.3704ZM24.4427 16.8379H17.0658C15.5378 16.8379 14.1549 17.457 13.1536 18.4583C12.1523 19.4596 11.5332 20.8424 11.5332 22.3704C11.5332 25.4258 14.0098 27.903 17.0658 27.903H24.4427C25.9701 27.903 27.3535 27.2839 28.3542 26.2826C29.3555 25.2813 29.9753 23.8978 29.9753 22.3704C29.9753 19.3145 27.498 16.8379 24.4427 16.8379Z" fill="#FF6E41"/>
<path d="M20.7538 31.5912H17.9875C16.7428 31.5912 15.5351 31.3477 14.3984 30.8666C13.3 30.4018 12.3137 29.7371 11.4674 28.8907C10.6204 28.0437 9.95565 27.058 9.49146 25.9597C9.01034 24.8223 8.76685 23.6147 8.76685 22.3705C8.76685 21.1257 9.01034 19.9181 9.49146 18.7807C9.95565 17.683 10.6204 16.6967 11.4674 15.8503C12.3137 15.0033 13.3 14.3386 14.3984 13.8738C15.5351 13.3933 16.7428 13.1492 17.9875 13.1492H23.5201C24.7649 13.1492 25.9726 13.3933 27.1093 13.8738C28.2076 14.3386 29.1939 15.0033 30.0403 15.8503C30.8873 16.6967 31.552 17.683 32.0162 18.7807C32.4973 19.9181 32.7415 21.1257 32.7415 22.3705H31.8189C31.8189 17.7944 28.0963 14.0717 23.5201 14.0717H17.9875C13.4114 14.0717 9.68872 17.7944 9.68872 22.3705C9.68872 26.9467 13.4114 30.6694 17.9875 30.6694H20.7538V31.5912Z" fill="#FF6E41"/>
<mask id="mask0_40_1564" style="mask-type:luminance" maskUnits="userSpaceOnUse" x="6" y="18" width="4" height="9">
<path d="M6 18.5386H9.83789V26.2052H6V18.5386Z" fill="white"/>
</mask>
<g mask="url(#mask0_40_1564)">
<path d="M9.68888 26.0588C7.65177 26.0588 6.00073 24.4078 6.00073 22.3707C6.00073 20.3336 7.65177 18.6819 9.68888 18.6819V26.0588Z" fill="#FF6E41"/>
</g>
<mask id="mask1_40_1564" style="mask-type:luminance" maskUnits="userSpaceOnUse" x="31" y="18" width="5" height="9">
<path d="M31.6711 18.5386H35.4999V26.2052H31.6711V18.5386Z" fill="white"/>
</mask>
<g mask="url(#mask1_40_1564)">
<path d="M31.8188 26.0588C33.856 26.0588 35.5076 24.4078 35.5076 22.3707C35.5076 20.3336 33.856 18.6819 31.8188 18.6819V26.0588Z" fill="#FF6E41"/>
</g>
<path d="M23.0592 17.299C23.0592 18.3172 22.0273 19.1427 20.7538 19.1427C19.481 19.1427 18.4485 18.3172 18.4485 17.299C18.4485 16.2801 19.481 15.4546 20.7538 15.4546C22.0273 15.4546 23.0592 16.2801 23.0592 17.299Z" fill="#FF6E41"/>
<mask id="mask2_40_1564" style="mask-type:luminance" maskUnits="userSpaceOnUse" x="19" y="9" width="4" height="3">
<path d="M19.3379 9H22.1712V11.8717H19.3379V9Z" fill="white"/>
</mask>
<g mask="url(#mask2_40_1564)">
<path d="M22.1374 10.3828C22.1374 11.1471 21.5176 11.7663 20.7539 11.7663C19.9902 11.7663 19.3711 11.1471 19.3711 10.3828C19.3711 9.61914 19.9902 9 20.7539 9C21.5176 9 22.1374 9.61914 22.1374 10.3828Z" fill="#FF6E41"/>
</g>
<mask id="mask3_40_1564" style="mask-type:luminance" maskUnits="userSpaceOnUse" x="18" y="29" width="6" height="4">
<path d="M18.8379 29.2051H23.6712V33H18.8379V29.2051Z" fill="white"/>
</mask>
<g mask="url(#mask3_40_1564)">
<path d="M23.5201 31.1303C23.5201 32.1485 22.4882 32.9747 21.2148 32.9747C19.942 32.9747 18.9094 32.1485 18.9094 31.1303C18.9094 30.1114 19.942 29.2859 21.2148 29.2859C22.4882 29.2859 23.5201 30.1114 23.5201 31.1303Z" fill="#FF6E41"/>
</g>
<path d="M21.2148 18.7012H20.293V10.3828H21.2148V18.7012Z" fill="#FF6E41"/>
<mask id="mask4_40_1564" style="mask-type:luminance" maskUnits="userSpaceOnUse" x="20" y="30" width="3" height="3">
<path d="M20.1296 30.1636H22.2958V32.1281H20.1296V30.1636Z" fill="white"/>
</mask>
<g mask="url(#mask4_40_1564)">
<path d="M22.2885 30.6582C22.1665 30.0308 21.4018 30.0203 21.2133 30.6069C21.0247 30.0203 20.2601 30.0308 20.1382 30.6582C20.0275 31.2275 21.2133 32.1256 21.2133 32.1256C21.2133 32.1256 22.3991 31.2275 22.2885 30.6582Z" fill="#FFECE6"/>
</g>
</svg>
